<svg width="15" height="17" viewBox="0 0 15 17" fill="none" xmlns="http://www.w3.org/2000/svg">
<path fill-rule="evenodd" clip-rule="evenodd" d="M5.74325 15.0795C6.13175 15.5123 6.6305 15.75 7.148 15.75H7.14875C7.6685 15.75 8.1695 15.5122 8.55875 15.0787C8.76725 14.8485 9.12275 14.8297 9.353 15.0375C9.584 15.2452 9.60275 15.6015 9.395 15.8317C8.789 16.5045 7.99175 16.875 7.14875 16.875H7.14725C6.3065 16.8743 5.51075 16.5037 4.907 15.831C4.69925 15.6007 4.718 15.2445 4.949 15.0375C5.18 14.829 5.5355 14.8478 5.74325 15.0795ZM7.18535 0.75C10.5191 0.75 12.7586 3.3465 12.7586 5.77125C12.7586 7.0185 13.0758 7.54725 13.4126 8.10825C13.7456 8.66175 14.1228 9.29025 14.1228 10.4782C13.8611 13.5135 10.6923 13.761 7.18535 13.761C3.67835 13.761 0.508846 13.5135 0.250086 10.5262C0.247846 9.29025 0.625096 8.66175 0.958096 8.10825L1.07565 7.91037C1.3651 7.41289 1.6121 6.87176 1.6121 5.77125C1.6121 3.3465 3.8516 0.75 7.18535 0.75ZM7.18535 1.875C4.5641 1.875 2.7371 3.9285 2.7371 5.77125C2.7371 7.3305 2.30435 8.05125 1.92185 8.68725C1.6151 9.198 1.37285 9.6015 1.37285 10.4782C1.4981 11.8927 2.43185 12.636 7.18535 12.636C11.9126 12.636 12.8756 11.8597 13.0001 10.4295C12.9978 9.6015 12.7556 9.198 12.4488 8.68725C12.0663 8.05125 11.6336 7.3305 11.6336 5.77125C11.6336 3.9285 9.8066 1.875 7.18535 1.875Z" fill="#141414"/>
</svg>
