<svg width="20" height="20" viewBox="0 0 20 20" fill="none" xmlns="http://www.w3.org/2000/svg">
<path d="M6 2C5.71667 2 5.479 1.904 5.287 1.712C5.095 1.52 4.99933 1.28267 5 1C5 0.716666 5.096 0.479 5.288 0.287C5.48 0.0949996 5.71733 -0.000667021 6 -3.54488e-07H14C14.2833 -3.54488e-07 14.521 0.0959997 14.713 0.288C14.905 0.48 15.0007 0.717333 15 1C15 1.28333 14.904 1.521 14.712 1.713C14.52 1.905 14.2827 2.00067 14 2H6ZM3 5C2.71667 5 2.479 4.904 2.287 4.712C2.095 4.52 1.99933 4.28267 2 4C2 3.71667 2.096 3.479 2.288 3.287C2.48 3.095 2.71733 2.99933 3 3H17C17.2833 3 17.521 3.096 17.713 3.288C17.905 3.48 18.0007 3.71733 18 4C18 4.28333 17.904 4.521 17.712 4.713C17.52 4.905 17.2827 5.00067 17 5H3ZM2 20C1.45 20 0.979 19.804 0.587 19.412C0.195 19.02 -0.000666876 18.5493 -2.09555e-07 18V8C-2.09555e-07 7.45 0.196 6.979 0.588 6.587C0.98 6.195 1.45067 5.99933 2 6H18C18.55 6 19.021 6.196 19.413 6.588C19.805 6.98 20.0007 7.45067 20 8V18C20 18.55 19.804 19.021 19.412 19.413C19.02 19.805 18.5493 20.0007 18 20H2ZM2 18H18V8H2V18ZM9.55 15.975L12.75 13.825C13.05 13.625 13.2 13.35 13.2 13C13.2 12.65 13.05 12.375 12.75 12.175L9.55 10.025C9.21667 9.79167 8.875 9.775 8.525 9.975C8.175 10.175 8 10.475 8 10.875V15.125C8 15.525 8.175 15.825 8.525 16.025C8.875 16.225 9.21667 16.2083 9.55 15.975Z" fill="url(#paint0_linear_1_194)"/>
<defs>
<linearGradient id="paint0_linear_1_194" x1="13.5474" y1="49.7917" x2="2.43188" y2="47.3325" gradientUnits="userSpaceOnUse">
<stop stop-color="#EFA058"/>
<stop offset="1" stop-color="#EF5858"/>
</linearGradient>
</defs>
</svg>
